<?xml version="1.0" encoding="UTF-8"?>
<svg id="Layer_2" data-name="Layer 2" xmlns="http://www.w3.org/2000/svg" xmlns:xlink="http://www.w3.org/1999/xlink" viewBox="0 0 542.7651818 442.09630729">
  <defs>
    <style>
      .cls-1 {
        fill: url(#linear-gradient-2);
      }

      .cls-2 {
        fill: #fff;
      }

      .cls-3 {
        fill: #c7e3be;
      }

      .cls-4 {
        fill: #15793d;
      }

      .cls-5 {
        fill: #77c269;
      }

      .cls-6 {
        fill: url(#linear-gradient-3);
      }

      .cls-7 {
        fill: url(#linear-gradient);
      }

      .cls-8 {
        fill: #1b7a3d;
      }

      .cls-9 {
        fill: url(#linear-gradient-4);
      }
    </style>
    <linearGradient id="linear-gradient" x1="334.02625656" y1="44.14430932" x2="334.02625656" y2="96.84033597" gradientUnits="userSpaceOnUse">
      <stop offset=".00558659" stop-color="#005b32"/>
      <stop offset=".15501643" stop-color="#008641"/>
      <stop offset=".4646267" stop-color="#00a651"/>
      <stop offset=".86483427" stop-color="#43b649"/>
    </linearGradient>
    <linearGradient id="linear-gradient-2" x1="365.41175634" y1="93.22205816" x2="365.41175634" y2="40.91681111" gradientUnits="userSpaceOnUse">
      <stop offset=".00558659" stop-color="#005b32"/>
      <stop offset=".15501643" stop-color="#008641"/>
      <stop offset=".4646267" stop-color="#00a651"/>
      <stop offset=".96927374" stop-color="#43b649"/>
    </linearGradient>
    <linearGradient id="linear-gradient-3" x1="244.12648962" y1="388.07983156" x2="244.12648962" y2="440.05737624" xlink:href="#linear-gradient"/>
    <linearGradient id="linear-gradient-4" x1="275.08406499" y1="436.4884317" x2="275.08406499" y2="384.89633856" xlink:href="#linear-gradient-2"/>
  </defs>
  <g id="Layer_1-2" data-name="Layer 1">
    <g>
      <g>
        <rect class="cls-2" x="61.33615242" y="58.28366392" width="45.6826354" height="46.6206772"/>
        <path class="cls-8" d="m107.12881641,105.01424939h-45.90266592v-46.84048472h45.90266592v46.84048472Zm-45.68281097-.21985496h45.46295601v-46.40077481h-45.46295601v46.40077481Z"/>
      </g>
      <g>
        <rect class="cls-2" x="60.39811063" y="57.34051563" width="47.55871899" height="46.6206772"/>
        <path class="cls-8" d="m108.06684991,104.07117039h-47.77873292v-46.84059207h47.77873292v46.84059207Zm-47.55887796-.21985496h47.33902301v-46.40088216h-47.33902301v46.40088216Z"/>
      </g>
      <g>
        <rect class="cls-2" x="59.45290596" y="54.3657653" width="49.44912833" height="48.47380035"/>
        <path class="cls-8" d="m109.01196857,102.94945925h-49.66897025v-48.69357859h49.66897025v48.69357859Zm-49.44911529-.21985496h49.22926034v-48.25386867h-49.22926034v48.25386867Z"/>
      </g>
      <path class="cls-5" d="m99.14202602,64.12578333h-29.9291118c-5.39030372,0-9.76000827-4.36970452-9.76000826-9.76000826v-.00000976h49.44912833v.00000976c.00000001,5.39030374-4.36970454,9.76000826-9.76000826,9.76000826Z"/>
      <rect class="cls-4" x="63.14168864" y="51.40641657" width="1.92361196" height="5.99567359" rx=".96180503" ry=".96180503"/>
      <rect class="cls-4" x="68.87578567" y="51.40641657" width="1.92361193" height="5.99567359" rx=".96180499" ry=".96180499"/>
      <rect class="cls-4" x="74.60988272" y="51.40641657" width="1.92361195" height="5.99567359" rx=".961805" ry=".961805"/>
      <rect class="cls-4" x="80.34397975" y="51.40641657" width="1.92361194" height="5.99567359" rx=".96180501" ry=".96180501"/>
      <rect class="cls-4" x="86.07807679" y="51.40641657" width="1.92361195" height="5.99567359" rx=".96180503" ry=".96180503"/>
      <rect class="cls-4" x="91.81217381" y="51.40641657" width="1.92361197" height="5.99567359" rx=".96180501" ry=".96180501"/>
      <rect class="cls-4" x="97.54627087" y="51.40641657" width="1.92361192" height="5.99567359" rx=".96180499" ry=".96180499"/>
      <rect class="cls-4" x="103.28036788" y="51.40641657" width="1.92361197" height="5.99567359" rx=".96180503" ry=".96180503"/>
      <rect class="cls-3" x="64.45838141" y="68.45925454" width="5.73409704" height="5.73409704"/>
      <rect class="cls-3" x="72.70464017" y="68.45925454" width="5.73409704" height="5.73409704"/>
      <rect class="cls-3" x="80.95089893" y="68.45925454" width="5.73409704" height="5.73409704"/>
      <rect class="cls-3" x="89.19715768" y="68.45925454" width="5.73409704" height="5.73409704"/>
      <rect class="cls-3" x="97.44341644" y="68.45925454" width="5.73409704" height="5.73409704"/>
      <rect class="cls-3" x="64.45838141" y="76.89651883" width="5.73409704" height="5.73409704"/>
      <rect class="cls-3" x="72.70464017" y="76.89651883" width="5.73409704" height="5.73409704"/>
      <rect class="cls-3" x="80.95089893" y="76.89651883" width="5.73409704" height="5.73409704"/>
      <rect class="cls-3" x="89.19715768" y="76.89651883" width="5.73409704" height="5.73409704"/>
      <rect class="cls-3" x="97.44341644" y="76.89651883" width="5.73409704" height="5.73409704"/>
      <rect class="cls-3" x="64.45838141" y="85.33378313" width="5.73409704" height="5.73409704"/>
      <rect class="cls-3" x="72.70464017" y="85.33378313" width="5.73409704" height="5.73409704"/>
      <rect class="cls-3" x="80.95089893" y="85.33378313" width="5.73409704" height="5.73409704"/>
      <rect class="cls-3" x="89.19715768" y="85.33378313" width="5.73409704" height="5.73409704"/>
      <rect class="cls-3" x="97.44341644" y="85.33378313" width="5.73409704" height="5.73409704"/>
      <rect class="cls-3" x="64.45838141" y="93.77104742" width="5.73409704" height="5.73409704"/>
      <rect class="cls-3" x="72.70464017" y="93.77104742" width="5.73409704" height="5.73409704"/>
      <rect class="cls-3" x="80.95089893" y="93.77104742" width="5.73409704" height="5.73409704"/>
      <rect class="cls-3" x="89.19715768" y="93.77104742" width="5.73409704" height="5.73409704"/>
      <rect class="cls-3" x="97.44341644" y="93.77104742" width="5.73409704" height="5.73409704"/>
      <polygon class="cls-8" points="99.56552269 80.58211002 92.10934799 88.03839207 88.71104308 84.64008715 87.68755814 85.66367944 92.10934799 90.08546929 100.58900763 81.60559495 99.56552269 80.58211002"/>
      <path class="cls-4" d="m117.12566177,12.47373573c3.95626282.03742243,7.71727478.91437935,11.24206584,2.71509692.6188579.31615306.92749303.29507998,1.35381965-.30134093.98601537-1.37942321,2.32273845-1.67004211,3.52968629-.89078463,1.17889946.76115234,1.54291104,2.39555168.63416103,3.72051254-.52664223.76785591-.34881135,1.08294191.25968276,1.62342936,4.79352473,4.25783371,7.51915734,9.65156016,8.25960235,15.9638846.38935509,3.31922786-.48357002,6.53307932-1.8774483,9.57127898-.4326919.94311653-.929948,1.8567594-1.40221341,2.78156141-.25411131.49759565-.52618651.75071498-1.0907999.28343782-3.61244961-2.98971726-7.61169643-5.45204931-11.33788312-8.28279837-1.00927142-.76674477-2.00556238-1.56291911-3.03714902-2.30508659-5.72065761-4.11571442-11.49855861-8.15429559-17.14878655-12.36416482-1.92014564-1.43065499-3.85083147-2.84764205-5.79635737-4.24312443-.50695102-.36362533-.58659785-.57244051-.13695638-1.07940279,3.65008266-4.11539486,8.23471455-6.38804169,13.66605337-7.02355266.67726999-.07924534,1.35935436-.1201573,2.04007894-.16584073.27962387-.01876631.56156305-.00310568.84244381-.00310568Zm1.25510639,1.21705364c-.4148456.03107516-1.22200842.03893578-2.01150134.16099579-1.99994682.30920706-3.93365359.83204485-5.47119163,2.25280795-1.26119236,1.16540129-1.2142466,2.50264896.0930683,3.5998612.93181495.78206196,2.04516529,1.25023354,3.14327864,1.73743775,2.61740819,1.16127079,5.31381638,2.11055092,7.82620483,3.55143206,2.42545022,1.39102497,4.92723967,2.66792402,7.38688305,4.0112049,1.19604014.65319553,2.40313499,1.29065513,3.75289734,1.5750039,1.61154726.33948698,2.55300569-.31521823,2.81873032-1.93972935.09156886-.55983413.04787924-1.11433847-.04177857-1.67298249-.74795691-4.66089254-3.76442246-7.79158672-7.34847087-10.37330104-2.85267356-2.05485989-6.22528597-2.88531793-10.14812005-2.90273067Z"/>
      <path class="cls-4" d="m27.81218623,37.70424149c.04087817-4.28547444,1.05247225-8.30742342,3.11475249-12.09568423,1.18182117-2.17091608,2.56969433-4.15385313,4.34356353-5.85947924.47578983-.45748077.54390051-.78864247.09499773-1.27939314-.6078326-.66449793-.78498725-1.48932681-.63691001-2.35539456.16924216-.9898964.75640965-1.69420984,1.72858091-1.96846469,1.00812111-.28439836,2.01320292-.09389952,2.58102834.80222592.61168778.96534849,1.12385377.73519209,1.92426543.28929471,5.22891416-2.91295499,10.81698508-4.04756762,16.71831441-2.86173239,4.02848594.80950067,7.2118673,3.12614861,9.83532471,6.25808617,1.33062976,1.58852674,1.34015562,1.51822377-.2522517,2.75223468-4.36658805,3.38382453-8.86190759,6.60138224-13.20526164,10.00817521-3.08665266,2.4210638-6.36499867,4.5853057-9.37316216,7.09164621-3.32751889,2.77241885-6.94722315,5.14453008-10.32531881,7.83735463-.92902555.74056964-1.8541849,1.49557123-2.76771254,2.25902849-.6617537.55304608-.97404189.39571246-1.3062528-.31994562-1.55521896-3.35028098-2.56154295-6.82327948-2.4739579-10.55795216Zm2.02423558-4.44831785c.06375201,1.58843674.15151346,2.78767359.67912591,3.89998814.72342193,1.52514406,1.79123406,1.85256462,3.21693505.97467288.96561487-.59457881,1.72720274-1.42271723,2.48305378-2.25472719,2.71436842-2.98786597,5.05951397-6.30207258,8.09500185-9.00928868,1.63600874-1.45908913,3.16544318-3.03819965,4.73050407-4.5758252.74402088-.73097527,1.46646523-1.48964821,1.93228818-2.43916343.41552549-.84699105.41914547-1.62856264-.16434692-2.47569144-.76498366-1.11062672-1.90842574-1.26270952-3.04036841-1.38478974-3.06219852-.33026177-5.78561137.64071588-8.40913493,2.17306673-5.95272565,3.47687554-8.93616304,8.71944666-9.52305858,15.09175793Z"/>
      <path class="cls-4" d="m48.44423518,4.84611641c-2.53283305-.61021465-5.0595691-1.20524435-7.64132879-1.50803986-9.25838135-1.08584372-18.15235789.06706505-26.22118749,4.95806808-5.54655604,3.36210314-9.73642494,8.02583689-11.61381076,14.43059158-.99754509,3.40315651-1.10803292,6.86154307-.42415096,10.47659841-.77274824-.62192202-.80752528-1.46114244-1.06930193-2.16021608C-1.29029239,23.65986901-.14807366,16.93026315,4.74235526,10.72851082c2.77072429-3.51366986,6.37335034-5.74397862,10.34509454-7.5774546C23.88006149-.90787624,32.88734879-.73111972,41.94323198,1.89703654c2.24527831.65161423,4.46805028,1.64862284,6.5010032,2.94907987Z"/>
      <path class="cls-4" d="m120.62672637,5.68291712c.71851199-.65421025,1.38729249-.83985313,2.00182847-1.11634128,7.993128-3.59622933,16.32149887-4.73178322,24.85824807-2.6874066,5.18285042,1.24118924,10.18510629,3.24588441,14.1873373,6.96194046,7.12628886,6.61669576,9.59417917,15.10102538,5.64513424,24.42470583-.15117903.35691625-.35705828.69068775-.62415005,1.01254711.16833441-2.10657286.41299335-4.18618819.21167122-6.28997678-.3182492-3.32562288-1.32405132-6.39715671-2.98915218-9.30496372-1.95852106-3.42025336-4.71670038-6.00380611-7.86280885-8.29743235-7.3993931-5.39441792-15.81673086-6.84004942-24.70126238-6.53490214-3.56720174.12251916-7.06400322.7657576-10.72684584,1.83182947Z"/>
      <path class="cls-4" d="m56.7947265,135.00426779c1.70171223-.66005705,3.28632099-.73870733,4.84768105-.85151826,12.25281465-.88513527,24.51952855-.88415085,36.79142433-.54167757,4.20966116.11745383,8.41538995.28362882,12.60185386.76491919.85014682.09772147,1.72489478.14135894,2.6323879.6597485-1.03923086.6485967-2.09197139.66305437-3.09668569.75210712-11.44066105,1.01391721-22.90638629,1.03835125-34.37676422.80979085-5.93290949-.11821786-11.86851651-.21322117-17.76237436-1.01701738-.35487527-.04841261-.7045907-.14661894-1.05029292-.24432572-.13504533-.03817176-.25236196-.1389934-.58722997-.33202674Z"/>
      <path class="cls-4" d="m37.20577462,10.00937614c-5.14179952,1.61582219-10.25079875,3.31638665-14.4057266,6.8875878-3.70546646,3.18488471-6.82758202,6.85043352-8.39089723,11.62815912-1.8106974,5.53375936-1.28143483,10.73208694,2.05237951,15.5750557-1.1254892-.48553658-3.04912434-2.41365131-3.7455067-3.64258587-3.67637802-6.48783668-2.61178344-12.66321369,1.38335462-18.52345878,3.86760648-5.67317151,9.38154507-9.02638553,15.94208126-10.8515647,2.36017304-.6566116,4.69862623-1.21017927,7.16431515-1.07319327Z"/>
      <path class="cls-4" d="m131.9758112,10.019571c6.96700991.27822189,13.12229252,2.35898877,18.29445574,6.7551639,3.99924682,3.39923906,6.97512453,7.58076965,8.02730645,12.90568261,1.12780083,5.70761866-1.25097558,11.87215242-5.73158736,14.65449254-.02046297-.06344329-.0787795-.15361636-.05558225-.18667505,4.08374479-5.82254534,3.94278255-11.88032526,1.0514763-18.11286074-1.477112-3.18405457-3.7157641-5.74286656-6.22978429-8.15424233-4.09297664-3.92584738-9.0124398-6.14172327-14.42661589-7.45664531-.15511874-.03767588-.30966416-.08310586-.45806481-.14127996-.10619577-.04163007-.20163084-.11065293-.47160389-.26363566Z"/>
      <path class="cls-4" d="m120.14058378,134.40587621c-1.79480258-.30062833-3.0684609-1.73469939-4.14245823-3.35257673-1.25983993-1.89783298-2.5373277-3.79521048-3.37341357-5.93969063-.25657362-.65807353-.97190298-.44179626-1.44319815-.69552534-.30446021-.16391231-.77764439-.20305379-.8332928-.58369883-.06032314-.41255769.36623134-.56938809.68560512-.73484314,2.03266259-1.05299992,3.96929474-2.26094957,5.83075634-3.59206853.18409325-.13163234.36550367-.39466193.61990898-.26986172.31442709.15424448.24020472.52648527.16743033.74774337-.27405241.83325517.22901035,1.29287374.67987931,1.87980497,1.67944846,2.18625163,3.32542408,4.40310826,4.25284361,7.04981595.35088411,1.00134022.51442618,2.0230005.3862239,3.07329696-.17709585,1.4507914-1.21995771,2.42750657-2.83028484,2.41760366Z"/>
      <path class="cls-4" d="m52.98117527,118.5610396c2.20833617,1.59309067,4.18991851,3.21511137,6.3944877,4.5290692.19330305.11522054.48429034.2097243.43247139.50529832-.04600494.26245657-.30969356.40613696-.53657235.40169975-1.23798777-.02416957-1.52473398.9268039-1.92733414,1.79275044-.94954365,2.04233616-2.3380232,3.81109334-3.61917137,5.64061972-.59477128.84934373-1.41510199,1.52506325-2.35827669,2.01140792-1.9314135.99596267-3.77304425-.02622656-3.96216136-2.19890209-.09948871-1.14293424.14441684-2.22721502.56277216-3.28197807.80246971-2.02323559,2.05766798-3.78373544,3.29059881-5.54749708.81341049-1.16363632,2.28542513-1.98291868,1.72318586-3.85246812Z"/>
      <path class="cls-4" d="m71.76965301,17.04406217c-.1089962-1.27805426.313082-1.8835204,1.33282747-2.04059691,4.07527-.62773667,8.14752641-1.27575301,12.22648622-1.87842202,1.33711264-.19756054,1.81168601.21636175,2.01455903,1.57318934.13015744.87048843.25291322,1.74234696.36061578,2.61585292.12497554,1.01359397-.33685257,1.61594157-1.33911189,1.77264341-4.11324851.64310712-8.22691598,1.28378995-12.34325158,1.90677719-1.04577989.15827213-1.69445758-.2854948-1.85022313-1.37553147-.1358171-.95039678-.29552236-1.89738117-.40190189-2.57391246Z"/>
      <path class="cls-4" d="m135.48165343,102.46880558c9.14339106-10.92348571,11.72869355-23.39396359,8.95862159-37.18550325,3.36955472,6.78738142,3.85488879,13.90332944,2.00713532,21.18272694-1.68954764,6.65609436-4.96444641,12.30627907-10.96575692,16.00277631Z"/>
      <path class="cls-4" d="m26.35337257,64.11386238c-3.09339647,13.97774086-.63333781,26.44101195,8.37296824,37.55191102-1.28502908-.64446069-2.43793454-1.42992035-3.36132249-2.44268418-7.67050175-8.41295776-9.84738272-18.22595817-7.35294899-29.20792836.45505674-2.00342976,1.17985683-3.8925132,2.34130323-5.90129847Z"/>
      <path class="cls-4" d="m132.63309598,100.61397828c6.458802-9.20634416,8.139794-19.2124734,5.21332437-30.00357744,5.28072576,7.23814761,4.07271948,23.07912737-5.21332437,30.00357744Z"/>
      <path class="cls-4" d="m37.59613668,99.79825891c-8.8290632-6.58592914-10.42183068-21.9951184-4.9354278-29.79316993-1.55360559,5.08644597-1.83201668,10.24923547-.99112376,15.47284559.8411759,5.22537326,2.73831907,10.02124808,5.92655156,14.32032434Z"/>
      <path class="cls-4" d="m80.11882497,27.02170952c-.4683992.10647835-.62315777-.1725443-.68739122-.65196134-.20632027-1.53995067-.43271395-3.07764968-.683231-4.61101801-.08307202-.50849583.08371884-.6724816.57815247-.79487404,2.49160207-.61676303,2.49374098-.63570933,2.88935109,1.85476486.16253509,1.02323241.22785637,2.06589598.45305932,3.07391038.17703705.79244239-.09854421.97960964-.81752661.97012914-.55477881-.00731699-1.11104237.09754883-1.73241404.15904901Z"/>
      <path class="cls-4" d="m55.0701588,37.20473946c-.14286594.15968079-.22236944.2927971-.33868277.37168981-1.12883721.76566485-1.96574631,1.83977091-2.92723772,2.78002602-.42183565.41252096-.63421983.28780524-.89361594-.12251916-.46595525-.73706174-.92524387-1.48035321-1.43358776-2.1878311-.27639713-.38467453-.08902201-.56446235.19117517-.76965761.99756254-.73054918,1.99013062-1.46795988,2.99273541-2.19150062.15128193-.10918182.46663882-.2618505.50250783-.22001657.64332674.75030726,1.25526075,1.52750224,1.90670579,2.33980923Z"/>
      <path class="cls-4" d="m118.66727918,40.34315835c-.34131414-.29572463-.60204063-.44307086-.75183782-.66516645-.61344815-.9095289-1.48013294-1.55102533-2.34711173-2.16376071-1.38900509-.98167397.07228927-1.48282527.32697389-2.15778443.36366612-.96375249.89870963-.38388479,1.37117349-.05727233.42581946.2943729.84376684.60010329,1.26858667.89593811,1.94762806,1.35630233,2.00100525,1.89824805.37487518,3.72443183-.10324099.11593313-.15883794.27422914-.24265969.42361399Z"/>
      <path class="cls-4" d="m134.90183573,81.74689577c.1012052-1.29621028.15297525-2.60652381.15297525-3.92920955,0-1.55507393-.07117375-3.09369631-.21062276-4.61229771l-2.37235091.26594881c-.05708392-.62722536-.12592278-1.25148515-.20769745-1.87163876l2.37232407-.26594881c-.37183721-2.8659913-.98787122-5.65493139-1.82571935-8.34615518l-2.26585866.75369832c-.18652245-.60073649-.38420942-1.19617252-.59426859-1.78632151l2.26644909-.75371174c-.95789344-2.70830603-2.14345163-5.30895237-3.53321835-7.77955633l-2.05934208,1.20792746c-.30772179-.54775875-.6260445-1.08907643-.95435086-1.62332236l2.05934208-1.2079543c-1.49507811-2.43705676-3.19433792-4.73526834-5.07362544-6.87168848l-1.76275796,1.60923253c-.41421404-.47188839-.83728453-.93553758-1.27033868-1.39035716l1.76281163-1.6092057c-1.9604986-2.06756785-4.09689189-3.96686293-6.38454282-5.67374466l-1.38971305,1.94047762c-.50251028-.37598364-1.01261564-.7419568-1.5303966-1.09734246l1.38976673-1.94105464c-2.33764968-1.61156742-4.82000858-3.02838661-7.42359365-4.2275247l-.95612215,2.1882036c-.56896058-.26243307-1.14382546-.5142518-1.72513141-.75430217l.95612215-2.18819018c-2.61005298-1.08439324-5.3325025-1.95224598-8.14493905-2.58297367l-.48012758,2.3388037c-.61072014-.13710071-1.22557329-.2630235-1.84455946-.37657407l.48012758-2.3388037c-2.76069334-.50952835-5.60139005-.79136512-8.502096-.82550276l.01647839,2.387058c-.20477213-.00293874-.4101347-.0041196-.61544358-.0041196-.42366093,0-.84608732.00530046-1.26738653.01647839l-.01647839-2.38646757c-2.89837107.07295846-5.73549836.39362947-8.49090466.94199207l.51246709,2.33175879c-.61777847.12236678-1.23088717.25652876-1.83924558.40302269l-.51249392-2.33232238c-2.80186247.6689715-5.51193979,1.57450447-8.1078761,2.69477979l.98612677,2.17465053c-.5777902.24828957-1.1491125.50775706-1.7145305.77842932l-.98612677-2.17465053c-2.58592583,1.23441633-5.04829059,2.68535974-7.36476528,4.3292935l1.41622876,1.9210605c-.51246709.363021-1.01731225.73606591-1.51448181,1.11909447l-1.41681919-1.92165093c-2.26349694,1.73806721-4.3734282,3.66560904-6.30625706,5.76024277l1.78455022,1.58509197c-.42596898.46071046-.84313517.9296467-1.2508813,1.40739914l-1.78457706-1.58450153c-1.8498465,2.16170131-3.51730356,4.48285918-4.97942489,6.94111777l2.07579363,1.17970755c-.32124802.53894254-.63192197,1.08437982-.93140457,1.636285l-2.07582046-1.17970755c-1.35503866,2.48826321-2.50471476,5.10478408-3.42551841,7.82722019l2.27643274.72252626c-.20122955.59308773-.39129459,1.19088548-.56898742,1.79456071l-2.27643274-.72252626c-.80016791,2.70183813-1.37739452,5.49899057-1.70983389,8.37087276l2.37527622.23300546c-.07294504.62133447-.13354471,1.24618469-.18179901,1.87456408l-2.37527622-.23299204c-.1012052,1.29619686-.15300209,2.60652381-.15300209,3.9286057,0,1.55510076.07122742,3.09370972.21067644,4.61290156l2.37235091-.26593539c.05705708.62719852.12589595,1.25089472.20767061,1.87104833l-2.37235091.26594881c.37186405,2.8659913.98789806,5.65490455,1.82577302,8.34615518l2.26583183-.75371174c.18649562.60074991.38477301,1.19676295.59426859,1.78691194l-2.26644909.75369832c.95848387,2.70833286,2.14347846,5.30895237,3.53321835,7.77899273l2.05993251-1.2079543c.30713136.54778558.62542723,1.08908985.95376043,1.62333578l-2.05934208,1.20794088c1.49566854,2.4376606,3.19490151,4.73647604,5.0735986,6.87285592l1.76340206-1.60979613c.41362361.47187497.8372577.93494715,1.26969457,1.38975331l-1.76334839,1.60980954c1.96106219,2.066964,4.09748232,3.9662725,6.38507957,5.67374466l1.38976673-1.94106805c.5024566.37598364,1.0125888.7419568,1.53034293,1.09734246l-1.38971305,1.94105464c2.33762284,1.61215785,4.82057217,3.02897704,7.42415725,4.22751128l.95609531-2.18817676c.56839698.26298324,1.14382546.51422496,1.72456782.7548926l-.95612215,2.18758633c2.61005298,1.08439324,5.33247567,1.95224598,8.14493905,2.58300051l.48012758-2.3388037c.61074698.13706046,1.22560013.26298324,1.84455946.37656065l-.48010074,2.3388037c2.7606665.51011878,5.60136322.79195555,8.502096.82609319l-.01647839-2.38766185c.20474529.00293874.41008102.0041196.61544358.0041196.42363409,0,.84608732-.00528704,1.26735969-.01646497l.01647839,2.38704458c2.89834423-.07297188,5.73552519-.3942199,8.49090466-.94197865l-.51249392-2.33234922c.61780531-.12239362,1.23088717-.25652876,1.83929926-.40304953l.51246709,2.33292623c2.80186247-.6689715,5.51193979-1.57449105,8.1078761-2.69537023l-.98612677-2.17465053c.5777902-.24827615,1.14908567-.50777048,1.7139669-.77842932l.98612677,2.17465053c2.58592583-1.23441633,5.04888102-2.68476931,7.36530203-4.32870307l-1.41620192-1.92165093c.51246709-.36303442,1.01728541-.73605249,1.51448181-1.11910788l1.41681919,1.9222682c2.26408737-1.73808063,4.37401863-3.66680332,6.30684749-5.7608332l-1.78516749-1.58509197c.42602265-.46071046.843162-.92966011,1.25090814-1.40743939l1.78514065,1.58513222c1.84928291-2.16172814,3.5167668-4.48289944,4.97829771-6.94113119l-2.07582046-1.17969413c.32186529-.53896938.6325124-1.08439324.931995-1.636285l2.07579363,1.17969413c1.35503866-2.48826321,2.504178-5.10477067,3.42498165-7.82720677v-.00060385l-2.27584231-.72193583c.20122955-.59308773.39124091-1.19087206.56896058-1.79456071l2.27584231.72193583c.80019475-2.70183813,1.37798495-5.49838672,1.71042432-8.37028233l-2.37530306-.23299204c.07238145-.62133447.13357155-1.24619811.18179901-1.87459092l2.37530306.23300546Zm-19.42664902-22.04498144l2.85669202-1.64932815c.22855039-.13196128.52081363-.05364869.65274807.1749017l.01180862.02043696c.13193444.22853697.05364869.52078679-.1749017.65273466l-2.85671886,1.64932815c-.22852355.13194786-.52078679.05363527-.65272124-.1749017l-.01180862-.02043696c-.13193444-.22855039-.05364869-.52078679.1749017-.65273466Zm-13.06524035-12.70678177l1.64934157-2.85671886c.13193444-.22855039.42419768-.30684956.65274807-.1749017l.02042354.0117952c.22855039.13196128.30683615.42419768.1749017.65273466l-1.64934157,2.85671886c-.13193444.22855039-.42417085.30684956-.65272124.1749017l-.02042354-.0117952c-.22855039-.13194786-.30686298-.42419768-.17492854-.65273466Zm-19.04804869-7.66903842c0-.99827086.80926591-1.80752335,1.80752335-1.80752335h.05539314c.99828427,0,1.80755018.80925249,1.80755018,1.80752335v2.88442885c0,.99827086-.80926591,1.80753676-1.80755018,1.80753676h-.05539314c-.99825744,0-1.80752335-.80926591-1.80752335-1.80753676v-2.88442885Zm-17.63155156,4.64921306l.02042354-.0117952c.22855039-.13194786.52078679-.05364869.65272124.1749017l1.64934157,2.85671886c.13193444.22853697.05364869.52078679-.1749017.65273466l-.02042354.0117952c-.22855039.13194786-.52081363.05364869-.65274807-.1749017l-1.64934157-2.85671886c-.13193444-.22853697-.05362185-.52077337.17492854-.65273466Zm-14.26397588,14.27261764l.01178178-.02043696c.13196128-.22855039.42419768-.30686298.65274807-.1749017l2.85671886,1.64932815c.22855039.13194786.30686298.42418426.1749017.65273466l-.01178178.02043696c-.13198812.22853697-.42419768.30684956-.65274807.1749017l-2.85671886-1.64932815c-.22855039-.13194786-.30686298-.42419768-.1749017-.65273466Zm-.06916092,19.5977666c0,.99827086-.80926591,1.80753676-1.80755018,1.80753676h-2.88444227c-.99825744,0-1.80752335-.80926591-1.80752335-1.80753676v-.05540656c0-.99825744.80926591-1.80752335,1.80752335-1.80752335h2.88444227c.99828427,0,1.80755018.80926591,1.80755018,1.80752335v.05540656Zm3.59040962,17.90949685l-2.85671886,1.64932815c-.22855039.13194786-.52078679.05363527-.65274807-.1749017l-.01178178-.02043696c-.13196128-.22855039-.05364869-.52078679.1749017-.65273466l2.85671886-1.64932815c.22855039-.13196128.52075996-.05364869.65274807.1749017l.01178178.02043696c.13196128.22853697.05364869.52078679-.1749017.65273466Zm13.06521351,12.70678177l-1.64934157,2.85670544c-.13193444.22855039-.42417085.30686298-.65272124.1749017l-.02042354-.0117952c-.22855039-.13194786-.30686298-.42419768-.17492854-.65273466l1.64934157-2.85671886c.13193444-.22855039.42419768-.30684956.65274807-.1749017l.02042354.0117952c.22855039.13196128.30686298.42419768.1749017.65274807Zm18.97953189,7.84791211c0,.99827086-.80926591,1.80753676-1.80755018,1.80753676h-.05539314c-.99825744,0-1.80752335-.80926591-1.80752335-1.80753676v-2.88442885c0-.99827086.80926591-1.80752335,1.80752335-1.80752335h.05539314c.99828427,0,1.80755018.80925249,1.80755018,1.80752335v2.88442885Zm17.7000952-4.82810017l-.02042354.0117952c-.22855039.13196128-.52081363.05364869-.65274807-.1749017l-1.64934157-2.85670544c-.13193444-.22855039-.05362185-.52078679.17492854-.65274807l.02042354-.0117952c.22855039-.13194786.52078679-.05364869.65272124.1749017l1.64934157,2.85671886c.13193444.22853697.05364869.52078679-.1749017.65273466Zm-19.5010433-1.94571099c-17.51786679,0-31.7183982-14.20054483-31.7183982-31.71838478,0-17.51723611,14.20053141-31.71778093,31.7183982-31.71778093,17.51722269,0,31.71778093,14.20054483,31.71778093,31.71778093,0,17.51783996-14.20055825,31.71838478-31.71778093,31.71838478Zm33.76501918-12.32689323l-.01180862.02043696c-.13193444.22853697-.42419768.30684956-.65274807.1749017l-2.85669202-1.64932815c-.22855039-.13194786-.30683615-.42419768-.1749017-.65273466l.01180862-.02043696c.13193444-.22855039.42419768-.30686298.65272124-.1749017l2.85671886,1.64932815c.22855039.13194786.30683615.42418426.1749017.65273466Zm6.50010623-19.36348634c0,.99827086-.80926591,1.80753676-1.80752335,1.80753676h-2.88441543c-.99825744,0-1.80752335-.80926591-1.80752335-1.80753676v-.05540656c0-.99825744.80926591-1.80752335,1.80752335-1.80752335h2.88441543c.99825744,0,1.80752335.80926591,1.80752335,1.80752335v.05540656Z"/>
    </g>
    <g>
      <path class="cls-4" d="m204.34421096,82.9835349v-30.30624404h18.62646989c4.04346275,0,7.02136335.66271575,8.93402785,1.98765817,1.91233844,1.32510544,2.86867069,3.38091003,2.86867069,6.16773981,0,1.77604561-.44767957,3.34716288-1.34206053,4.71302575-.89503308,1.36618893-2.12786371,2.34974714-3.69881795,2.95067464,1.33879994.5603331,2.27785104,1.25337237,2.81747937,2.07976995.53962832.82672364.85721019,2.28486132.95307166,4.37490214.01336844.20492834.02706293.48501337.04075743.84009207.16400788,3.75685653.69678896,6.15437138,1.59834323,7.19238151h-8.52417117c-.20509137-.32785274-.35866535-.68961565-.46104801-1.0861039-.10238265-.39599915-.15357398-.81955033-.15357398-1.27032746v-2.04912037c0-2.78682978-.35866535-4.61048007-1.07599606-5.47111388-.71700464-.86063381-2.12069041-1.29103224-4.21073123-1.29103224h-8.77034603v11.16769784h-7.60207516Zm7.60207516-17.37635811h8.5857964c2.26741714,0,3.86249978-.27666141,4.78459579-.82998423.92209601-.55315979,1.38314402-1.46498493,1.38314402-2.73547543,0-1.22957004-.43007236-2.09004082-1.29086921-2.58190144-.86047078-.49186062-2.59575897-.73770942-5.20456031-.73770942h-8.25810669v6.88507051Z"/>
      <path class="cls-4" d="m240.26487199,82.9835349v-30.30624404h26.90479227v6.12681936h-19.30239105v5.1227194h17.19180848v6.16790284h-17.19180848v6.51613429h19.30239105v6.37266815h-26.90479227Z"/>
      <path class="cls-4" d="m272.1081601,82.9835349v-30.30624404h7.60207516v23.93357589h15.59379131v6.37266815h-23.19586647Z"/>
      <path class="cls-4" d="m302.92664347,82.9835349v-12.92988593l-13.23735995-17.37635811h9.65135855l7.56131773,10.83968208,7.47915076-10.83968208h9.61027507l-13.48320875,17.37635811v12.92988593h-7.58153342Z"/>
      <path class="cls-4" d="m381.27512902,82.9835349v-30.30624404h18.62646989c4.04346275,0,7.02136335.66271575,8.93402785,1.98765817,1.91233844,1.32510544,2.86867069,3.38091003,2.86867069,6.16773981,0,1.77604561-.44735351,3.34716288-1.34206053,4.71302575-.89503308,1.36618893-2.12786371,2.34974714-3.69849189,2.95067464,1.33847388.5603331,2.27752498,1.25337237,2.81747937,2.07976995.53930227.82672364.85688413,2.28486132.9527456,4.37490214.01336844.20492834.02706293.48501337.04108349.84009207.16368182,3.75685653.6964629,6.15437138,1.59834323,7.19238151h-8.52449723c-.20476531-.32785274-.35866535-.68961565-.46104801-1.0861039-.10238265-.39599915-.15357398-.81955033-.15357398-1.27032746v-2.04912037c0-2.78682978-.35866535-4.61048007-1.07567-5.47111388-.7173307-.86063381-2.12101647-1.29103224-4.21105729-1.29103224h-8.77001997v11.16769784h-7.60240122Zm7.60240122-17.37635811h8.58547034c2.2677432,0,3.86282584-.27666141,4.78492185-.82998423.92209601-.55315979,1.38314402-1.46498493,1.38314402-2.73547543,0-1.22957004-.43039842-2.09004082-1.29119527-2.58190144-.86047078-.49186062-2.59543291-.73770942-5.20456031-.73770942h-8.25778063v6.88507051Z"/>
      <path class="cls-4" d="m417.19611611,82.9835349v-30.30624404h26.90479227v6.12681936h-19.30239105v5.1227194h17.19180848v6.16790284h-17.19180848v6.51613429h19.30239105v6.37266815h-26.90479227Z"/>
      <path class="cls-4" d="m449.03907815,82.9835349v-30.30624404h7.60240122v23.93357589h15.59346525v6.37266815h-23.19586647Z"/>
      <path class="cls-4" d="m474.32498545,82.9835349l14.36422128-30.30624404h7.29492719l13.81089846,30.30624404h-8.44233026l-2.76628804-6.41375164h-13.33974261l-2.72520455,6.41375164h-8.19648146Zm13.52429223-12.54057099h8.01193184l-4.07769899-9.36442627-3.93423285,9.36442627Z"/>
      <path class="cls-4" d="m508.8934781,82.9835349l12.49981357-15.36832123-11.90540726-14.93792281h9.56919158l6.96691143,9.48735067,6.96723749-9.48735067h9.34388453l-11.94649075,14.85591887,12.37656311,15.45032517h-9.77395689l-7.06962014-9.73319947-7.4996925,9.73319947h-9.52843416Z"/>
    </g>
    <path class="cls-7" d="m351.18286821,93.10007952h-34.31322331c4.74677409-.80348057,9.98360889-1.83986745,12.29931586-4.47735195,1.39329493-1.58951271,1.42214963-3.475933,1.42214963-5.28083252-.01923647-11.29528083.01917782-29.68923569-.03847293-40.978653h7.16822297c0,1.98538948.00961823,12.05925149.00961823,12.91514841,0,3.29540751-.00961823,6.59667855-.01923647,9.89208606-.00961823,6.34632381-.01917782,12.69261208-.02879605,19.03893589,0,5.00133784,5.29448556,8.16287931,13.50042207,8.89066711Z"/>
    <path class="cls-1" d="m348.25514468,37.84731984h34.31322331c-4.74677409.80348057-9.98360889,1.83986745-12.29931586,4.47735195-1.39329493,1.58951271-1.42214963,3.475933-1.42214963,5.28083252.01923647,11.29528083-.01917782,33.1668799.03847293,44.4562972l-7.16822297-3.47764421c0-1.98538948-.00961823-12.05925149-.00961823-12.91514841,0-3.29540751.00961823-6.59667855.01923647-9.89208606.00961823-6.34632381.01917782-12.69261208.02879605-19.03893589,0-5.00133784-5.29448556-8.16287931-13.50042207-8.89066711Z"/>
    <path class="cls-4" d="m394.73943934,74.51861306c2.79876297,18.7236492-10.53855191,22.97267426-20.20528903,19.05647596-.03385168-.01500854-.06955881-.03063557-.10481239-.04609766-.30301584-.12497496-.60397006-.25460917-.89894561-.39549978-.01620428-.00738057-.03244978-.01500854-.04865406-.02247158-.48080932-.23135418-.94467218-.49082876-1.39958764-.76312657-7.05760129-4.45646452-13.15667637-17.53455222-20.96119996-36.01934297-8.48996858-20.10826954-23.31552045-18.48124478-23.31552045-18.48124478l.07570242.04881899c-2.3196854-.16488779-4.70389928.11499676-7.07636197.77504269-4.55566933,1.26739704-8.42750172,3.99956991-10.93681426,8.05039152-3.46969421,5.6011956-3.29746708,11.18309451-3.02714842,13.37982533-.04943747-11.31178038,8.44391215-18.80528907,19.35075056-18.11827724,1.37146725.08638157,2.59783819.35237085,3.72912756.78357776,4.2447369,1.86122397,11.48017291,7.92455068,18.33445795,27.36498139,10.39428025,29.48073206,25.98666959,28.35529768,28.20199616,28.74758135.28780114.05096307.42489838.02935737.45009129-.04465453,3.00991334.19535842,6.064976-.32833244,8.84151478-1.51103843,10.18465547-4.33821042,10.79043975-15.31436025,8.99069308-22.80494144Z"/>
    <g>
      <g>
        <rect class="cls-2" x="260.17091962" y="267.0747833" width="45.05977724" height="45.98502934"/>
        <path class="cls-8" d="m305.33922526,313.16822237h-45.27680776v-46.2018399h45.27680776v46.2018399Zm-45.05995041-.21685735h44.84309306v-45.7681252h-44.84309306v45.7681252Z"/>
      </g>
      <g>
        <rect class="cls-2" x="259.24566752" y="266.14449433" width="46.91028144" height="45.98502934"/>
        <path class="cls-8" d="m306.26446918,312.23800175h-47.12729559v-46.20194579h47.12729559v46.20194579Zm-46.91043824-.21685735h46.69358089v-45.76823109h-46.69358089v45.76823109Z"/>
      </g>
      <g>
        <rect class="cls-2" x="258.31335021" y="263.21030313" width="48.77491606" height="47.81288615"/>
        <path class="cls-8" d="m307.19670166,311.13158453h-48.99176055v-48.02966783h48.99176055v48.02966783Zm-48.7749032-.21685735h48.55804585v-47.59595313h-48.55804585v47.59595313Z"/>
      </g>
      <path class="cls-5" d="m297.46133047,272.83724855h-29.52104446c-5.31680983,0-9.62693581-4.31012595-9.6269358-9.6269358v-.00000963h48.77491606v.00000963c.00000001,5.31680985-4.31012597,9.6269358-9.6269358,9.6269358Z"/>
      <rect class="cls-4" x="261.95183831" y="260.29130353" width="1.89738457" height="5.9139258" rx=".94869135" ry=".94869135"/>
      <rect class="cls-4" x="267.60775403" y="260.29130353" width="1.89738452" height="5.9139258" rx=".94869132" ry=".94869132"/>
      <rect class="cls-4" x="273.26366974" y="260.29130353" width="1.89738453" height="5.9139258" rx=".9486913" ry=".9486913"/>
      <rect class="cls-4" x="278.91958544" y="260.29130353" width="1.89738454" height="5.9139258" rx=".94869132" ry=".94869132"/>
      <rect class="cls-4" x="284.57550116" y="260.29130353" width="1.89738453" height="5.9139258" rx=".94869133" ry=".94869133"/>
      <rect class="cls-4" x="290.23141685" y="260.29130353" width="1.89738455" height="5.9139258" rx=".94869131" ry=".94869131"/>
      <rect class="cls-4" x="295.88733256" y="260.29130353" width="1.89738452" height="5.9139258" rx=".9486913" ry=".9486913"/>
      <rect class="cls-4" x="301.54324826" y="260.29130353" width="1.89738455" height="5.9139258" rx=".94869134" ry=".94869134"/>
      <rect class="cls-3" x="263.25057869" y="277.11163522" width="5.65591571" height="5.65591571"/>
      <rect class="cls-3" x="271.38440415" y="277.11163522" width="5.65591571" height="5.65591571"/>
      <rect class="cls-3" x="279.5182296" y="277.11163522" width="5.65591571" height="5.65591571"/>
      <rect class="cls-3" x="287.65205506" y="277.11163522" width="5.65591571" height="5.65591571"/>
      <rect class="cls-3" x="295.78588051" y="277.11163522" width="5.65591571" height="5.65591571"/>
      <rect class="cls-3" x="263.25057869" y="285.43386195" width="5.65591571" height="5.65591571"/>
      <rect class="cls-3" x="271.38440415" y="285.43386195" width="5.65591571" height="5.65591571"/>
      <rect class="cls-3" x="279.5182296" y="285.43386195" width="5.65591571" height="5.65591571"/>
      <rect class="cls-3" x="287.65205506" y="285.43386195" width="5.65591571" height="5.65591571"/>
      <rect class="cls-3" x="295.78588051" y="285.43386195" width="5.65591571" height="5.65591571"/>
      <rect class="cls-3" x="263.25057869" y="293.75608868" width="5.65591571" height="5.65591571"/>
      <rect class="cls-3" x="271.38440415" y="293.75608868" width="5.65591571" height="5.65591571"/>
      <rect class="cls-3" x="279.5182296" y="293.75608868" width="5.65591571" height="5.65591571"/>
      <rect class="cls-3" x="287.65205506" y="293.75608868" width="5.65591571" height="5.65591571"/>
      <rect class="cls-3" x="295.78588051" y="293.75608868" width="5.65591571" height="5.65591571"/>
      <rect class="cls-3" x="263.25057869" y="302.07831542" width="5.65591571" height="5.65591571"/>
      <rect class="cls-3" x="271.38440415" y="302.07831542" width="5.65591571" height="5.65591571"/>
      <rect class="cls-3" x="279.5182296" y="302.07831542" width="5.65591571" height="5.65591571"/>
      <rect class="cls-3" x="287.65205506" y="302.07831542" width="5.65591571" height="5.65591571"/>
      <rect class="cls-3" x="295.78588051" y="302.07831542" width="5.65591571" height="5.65591571"/>
      <polygon class="cls-8" points="297.87905299 289.06920208 290.52453922 296.42382174 287.17256836 293.07185088 286.1630381 294.08148703 290.52453922 298.44298816 298.88858326 290.07873235 297.87905299 289.06920208"/>
      <path class="cls-4" d="m315.19976902,221.88944884c3.90232131.0369122,7.61205389.90191227,11.08878632,2.67807804.61042011.31184248.91484717.29105673,1.33536105-.29723231.97257158-1.36061552,2.29106916-1.64727198,3.48156092-.87863926,1.1628258.75077444,1.52187428,2.36288962.62551459,3.66978535-.51946174.75738661-.3440555,1.06817658.25614213,1.60129478,4.7281676,4.19978044,7.41663768,9.51996633,8.14698711,15.74622562.38404644,3.27397197-.4769768,6.4440043-1.8518503,9.44077974-.42679238.93025764-.91726866,1.83144348-1.38309498,2.74363632-.25064663.4908112-.51901224.74047938-1.07592743.27957329-3.5631958-2.94895407-7.50791505-5.37771355-11.18329718-8.16986687-.99551055-.75629062-1.97821761-1.54160955-2.99573913-2.27365797-5.64265952-4.05959887-11.34178195-8.04311616-16.91497207-12.19558609-1.89396549-1.41114878-3.79832746-2.80881598-5.71732716-4.18527171-.50003902-.35866749-.57859991-.56463559-.13508905-1.06468571,3.60031575-4.05928366,8.12243865-6.30094418,13.47972408-6.9277903.66803578-.07816487,1.34082029-.11851902,2.01226356-.16357958.27581135-.01851044.55390644-.00306334.83095754-.00306334Zm1.23799369,1.20045977c-.4091894.03065147-1.20534699.03840492-1.98407561.1588007-1.97267862.30499119-3.88002034.82070037-5.39659488,2.22209213-1.24399668,1.14951167-1.197691,2.46852669.09179937,3.55077903.91911016.77139897,2.01728056,1.23318728,3.10042173,1.71374872,2.58172123,1.14543748,5.24136535,2.08177469,7.71949874,3.5030102,2.39238051,1.37205909,4.86005941,2.63154831,7.28616687,3.95651428,1.17973278.64428956,2.37036954,1.27305774,3.7017286,1.55352957,1.58957468.33485826,2.51819683-.3109204,2.78029844-1.91328218.09032037-.5522011.04722643-1.09914507-.04120894-1.65017228-.73775892-4.59734378-3.71309658-7.68535263-7.24827842-10.23186666-2.81377889-2.02684298-6.14040754-2.84597817-10.0097559-2.8631535Z"/>
      <path class="cls-4" d="m227.10403468,246.77595023c.04032082-4.22704431,1.03812236-8.19415617,3.07228452-11.93076608,1.16570767-2.1413168,2.53465793-4.09721757,4.28434137-5.77958839.46930269-.45124327.53648472-.77788976.09370249-1.2619493-.59954513-.65543786-.77428437-1.46902064-.62822608-2.32328002.16693463-.9763997.74609641-1.6711102,1.70501264-1.94162573.99437592-.28052074,1.98575398-.09261925,2.54583741.791288.60334774.95218648,1.10853063.72516814,1.89802911.28535034,5.15762072-2.87323841,10.66950131-3.99238121,16.49036919-2.82271421,3.9735597.79846356,7.11353737,3.08352526,9.70122535,6.17276053,1.31248733,1.56686803,1.32188332,1.49752361-.24881239,2.71470944-4.30705197,3.3376879-8.74108025,6.51137594-13.025215,9.87171912-3.04456781,2.3880539-6.27821534,4.52278752-9.24536414,6.99495543-3.28214996,2.73461841-6.8525015,5.07438718-10.18453864,7.73049652-.91635879.73047237-1.82890408,1.47517992-2.72997627,2.22822785-.65273105.5455056-.96076135.39031713-1.28844275-.31558334-1.53401439-3.3046017-2.52661769-6.73024773-2.44022681-10.41400016Zm1.99663621-4.38766743c.06288278,1.56677926.14944766,2.74966516.6698664,3.8468139.71355846,1.50434954,1.76681155,1.82730589,3.17307387.96138374.95244924-.58647205,1.70365326-1.40331925,2.44919868-2.2239852,2.67735947-2.94712802,4.99053022-6.21614721,7.98463085-8.88645188,1.61370265-1.43919524,3.12228407-2.99677544,4.66600619-4.51343628.73387655-.72100882,1.44647076-1.46933766,1.90594247-2.40590675.40986003-.83544279.41343065-1.60635807-.16210614-2.44193672-.75455352-1.09548392-1.88240538-1.24549316-2.99891462-1.36590887-3.02044709-.32575883-5.70672767.63198006-8.2944809,2.14343813-5.87156343,3.42947022-8.81432326,8.6005617-9.39321679,14.88598993Z"/>
      <path class="cls-4" d="m247.45477674,214.36582801c-2.49829923-.6018947-4.99058459-1.18881149-7.53714338-1.48747855-9.1321483-1.07103883-17.90486025.06615066-25.8636757,4.89046749-5.47093174,3.31626267-9.60367402,7.91640892-11.45546269,14.23383823-.9839441,3.35675631-1.09292548,6.76798962-.41836789,10.33375562-.76221223-.61344244-.7965151-1.44122055-1.05472257-2.1307627-2.7270518-7.28258288-1.60040662-13.92043419,3.22334394-20.03762896,2.73294695-3.46576286,6.28645314-5.66566256,10.20404474-7.47414008,8.67272916-4.0035911,17.55720695-3.82924456,26.48961804-1.2369218,2.21466514.64272982,4.40713082,1.62614475,6.41236552,2.90887075Z"/>
      <path class="cls-4" d="m318.65309848,215.1912194c.70871547-.64529045,1.3683775-.82840219,1.97453462-1.10112057,7.884146-3.54719668,16.09896401-4.6672679,24.51931922-2.65076526,5.11218504,1.22426629,10.04623784,3.20162852,13.99390058,6.86701815,7.02912574,6.52648067,9.46336769,14.89513102,5.56816588,24.0916881-.14911778.35204989-.35218999.6812706-.6156401.99874157.16603926-2.07785087.40736241-4.12911177.2087852-6.20421633-.31391004-3.2802798-1.30599859-6.30993491-2.9483967-9.17809555-1.93181768-3.37362005-4.65239071-5.92194744-7.75560368-8.18430132-7.29850635-5.32086794-15.60107824-6.74678902-24.36447395-6.44580227-3.51856487.12084868-6.96768933.75531691-10.58059106,1.80685347Z"/>
      <path class="cls-4" d="m255.69141359,342.749343c1.6785103-.65105752,3.24151377-.72863545,4.78158552-.83990826,12.08575412-.87306692,24.18521796-.87209593,36.28979305-.53429209,4.15226469.11585241,8.30065064.2797617,12.43003436.75448993.83855553.09638909,1.70137677.13943158,2.59649671.65075318-1.0250615.63975344-2.06344849.65401398-3.05446404.74185254-11.28467378,1.00009299-22.59407003,1.02419389-33.90805553.79874979-5.85201746-.11660602-11.70669567-.21031401-17.52019394-1.00315089-.35003674-.04775253-.69498399-.14461987-1.03597274-.24099447-.13320406-.03765131-.24892114-.1370983-.5792234-.32749973Z"/>
      <path class="cls-4" d="m236.36954654,219.45868947c-5.07169385,1.59379133-10.11103462,3.2711695-14.20931227,6.79367925-3.65494442,3.14146052-6.73449161,6.75703154-8.27649186,11.46961543-1.78600952,5.45830953-1.26396316,10.58576071,2.02439642,15.36269819-1.11014376-.47891655-3.00755117-2.38074247-3.69443873-3.59292118-3.62625258-6.39937851-2.57617318-12.49055758,1.36449332-18.27090139,3.81487375-5.59582087,9.25363275-8.90331562,15.72471956-10.70360945,2.32799335-.64765905,4.63456299-1.19367913,7.06663356-1.05856085Z"/>
      <path class="cls-4" d="m329.84744464,219.46874533c6.87201847.27442849,12.94337711,2.32682523,18.04502067,6.66306087,3.94471924,3.35289226,6.88002246,7.47740994,7.91785845,12.72972057,1.11242388,5.62979835-1.2339192,11.71028201-5.65344025,14.45468642-.02018397-.06257827-.07770539-.15152189-.05482442-.18412983,4.02806512-5.74315807,3.88902483-11.71834342,1.03713999-17.86590162-1.45697237-3.1406417-3.66510165-5.66456567-6.14484453-8.04306362-4.03717111-3.87232056-8.88956003-6.05798417-14.22991674-7.35497796-.15300378-.03716219-.30544205-.08197276-.45181934-.13935369-.10474785-.04106246-.19888171-.10914423-.46517382-.26004113Z"/>
      <path class="cls-4" d="m318.17358418,342.15911017c-1.77033142-.29652943-3.02662408-1.71104769-4.08597804-3.30686615-1.24266269-1.87195704-2.5027326-3.74346482-3.3274189-5.85870614-.25307538-.64910105-.9586516-.43577261-1.42352092-.68604223-.30030906-.16167745-.76704163-.20028526-.8219313-.57574041-.05950066-.40693269.36123797-.56162479.67625726-.72482395,2.00494832-1.03864283,3.91517554-2.23012274,5.75125711-3.54309261.18158324-.1298376.36052022-.38928092.61145686-.2661823.31014005.15214144.23692965.51930692.16514751.73754829-.27031586.82189418.22588792,1.2752461.67060952,1.85417484,1.65655008,2.15644327,3.28008371,4.34307425,4.19485838,6.9536955.3461.98768748.50741226,1.99541798.38095794,3.03139421-.17468125,1.43101064-1.20332424,2.39440882-2.79169543,2.38464093Z"/>
      <path class="cls-4" d="m251.92985808,326.53030938c2.1782267,1.57136974,4.13279122,3.17127505,6.3073023,4.46731778.19066747.11364957.4776873.20686482.42657488.49840885-.04537768.25887812-.30547105.4005995-.52925648.39622279-1.22110847-.02384003-1.50394506.91416743-1.90105598,1.76830725-.93659713,2.01449-2.30614551,3.75913113-3.56982592,5.56371291-.58666189.83776338-1.39580784,1.50426983-2.32612286,1.98398346-1.90507972.98238325-3.72160082-.02586897-3.90813942-2.16892124-.09813223-1.12735094.14244779-2.19684814.55509907-3.23723006.79152847-1.99564986,2.02961279-3.73214624,3.24573326-5.47185994.80232008-1.14777076,2.25426459-1.95588265,1.69969115-3.79994179Z"/>
      <path class="cls-4" d="m270.46216504,226.39746134c-.10751009-1.26062868.3088133-1.85783961,1.31465508-2.01277446,4.01970588-.61917782,8.03643927-1.25835881,12.05978465-1.85281074,1.31888183-.19486691,1.78698464.21341177,1.9870916,1.55173975.12838281.85861979.24946489,1.718591.35569898,2.58018717.12327157.99977416-.33225977,1.59390908-1.32085382,1.74847437-4.05716658.6343387-8.11474641,1.26628616-12.17495799,1.88077931-1.03152124.15611417-1.67135456-.28160223-1.82499634-1.35677684-.1339653-.93743863-.29149307-1.8715114-.39642217-2.53881855Z"/>
      <path class="cls-4" d="m333.3054866,310.65748432c9.01872584-10.77454986,11.56877912-23.07499948,8.83647561-36.67849891,3.32361265,6.69483913,3.80232945,13.71376502,1.97976911,20.89391185-1.66651157,6.5653421-4.89675886,12.13848957-10.81624472,15.78458706Z"/>
      <path class="cls-4" d="m225.66511115,272.82549015c-3.05121967,13.78716188-.62470259,26.08050297,8.25880732,37.03991091-1.2675084-.63567382-2.40469462-1.41042416-3.31549266-2.40937949-7.56591859-8.29825161-9.71311895-17.97745703-7.25269548-28.80969397.44885228-1.97611407,1.16377011-3.83944088,2.30938082-5.82083744Z"/>
      <path class="cls-4" d="m330.4957677,308.8279466c6.3707397-9.08082061,8.02881229-18.95052166,5.1422435-29.5944948,5.2087259,7.13945936,4.01719014,22.76445588-5.1422435,29.5944948Z"/>
      <path class="cls-4" d="m236.75458622,308.02334912c-8.70868367-6.49613354-10.27973463-21.69522679-4.8681359-29.38695609-1.53242301,5.01709502-1.80703811,10.10949265-.97761032,15.26188167.82970691,5.1541281,2.70098356,9.88461376,5.84574622,14.12507442Z"/>
      <path class="cls-4" d="m278.69750053,236.23906883c-.46201283.10502658-.61466135-.17019175-.67801901-.6430722-.2035072-1.51895427-.42681413-3.03568759-.67391552-4.54814926-.08193938-.50156277.08257738-.66331268.57026967-.78403636,2.45763041-.60835379,2.45974016-.62704177,2.84995634,1.82947613.16031902,1.00928119.22474967,2.0377286.4468821,3.03199926.17462325.78163786-.09720061.96625319-.80638007.95690195-.5472147-.00721723-1.0958939.09621881-1.70879351.15688046Z"/>
      <path class="cls-4" d="m253.99035945,246.28325864c-.14091804.15750363-.21933755.28880497-.33406501.36662202-1.11344613.75522542-1.93894442,1.81468662-2.88732641,2.74212186-.41608414.40689646-.62557259.28388117-.88143196-.12084868-.4596022-.7270123-.91262867-1.46016939-1.41404156-2.1580012-.2726286-.3794297-.08780825-.55676621.1885686-.75916374.98396131-.72058854,1.96299626-1.44794503,2.95193107-2.16162069.14921928-.10769318.46027645-.25828031.4956564-.21701676.63455532.74007722,1.23814594,1.50667557,1.88070888,2.30790718Z"/>
      <path class="cls-4" d="m316.7203673,249.37888688c-.33666051-.29169258-.59383213-.43702983-.74158692-.65609726-.60508412-.89712796-1.45995212-1.52987794-2.31511012-2.134259-1.37006675-.96828937.07130365-1.46260774.32251578-2.1283642.35870773-.95061224.88645621-.37865073,1.35247828-.05649146.42001364.29035928.83226254.5919212,1.25129017.88372247,1.9210732,1.33780988,1.97372262,1.87236645.36976396,3.67365121-.10183335.11435245-.15667227.27049017-.23935115.41783824Z"/>
      <path class="cls-4" d="m332.73357441,290.21810661c.09982533-1.27853715.15088951-2.57098526.15088951-3.87563689,0-1.53387133-.07020333-3.05151542-.20775104-4.54941151l-2.34000518.26232274c-.05630561-.61867348-.1242059-1.23442182-.20486561-1.84611997l2.33997871-.26232274c-.36676741-2.82691505-.97440213-5.57782944-1.80082665-8.23235984l-2.2349649.74342205c-.18397932-.59254577-.37897093-1.17986335-.58616606-1.76196598l2.23554728-.74343529c-.94483308-2.67137973-2.11422682-5.23656766-3.48504482-7.67348626l-2.03126406,1.19145802c-.30352617-.54029035-.61750872-1.07422746-.9413388-1.60118923l2.03126406-1.19148449c-1.47469352-2.4038288-3.15078484-4.67070551-5.00444929-6.7779967l-1.7387237,1.58729151c-.40856645-.46545444-.82586861-.92278203-1.25301829-1.37140038l1.73877664-1.58726504c-1.93376825-2.03937768-4.04103297-3.91277689-6.29749301-5.59638621l-1.37076506,1.91402026c-.49565882-.37085731-.99880917-.73184062-1.50953047-1.08238078l1.370818-1.9145894c-2.30577708-1.58959456-4.75429036-2.98709619-7.32237695-4.16988468l-.94308594,2.15836862c-.56120311-.25885493-1.12823002-.50724025-1.70161017-.74401767l.94308594-2.15835538c-2.57446631-1.06960812-5.2597967-1.92562816-8.03388719-2.54775622l-.4735813,2.30691537c-.6023933-.13523142-1.20886326-.25943731-1.81940988-.37143969l.4735813-2.30691537c-2.72305277-.50258121-5.52501811-.78057528-8.3861745-.81424747l.01625371,2.35451175c-.20198017-.00289867-.40454273-.00406343-.60705234-.00406343-.41788454,0-.83455137.00522819-1.25010639.01625371l-.01625371-2.35392937c-2.85885333.07196371-5.65729792.38826255-8.37513574.92914851l.50547987,2.29996651c-.60935539.12069838-1.21410468.25303113-1.81416846.39752769l-.50550635-2.30052242c-2.76366058.65985044-5.43678745,1.55303695-7.99732957,2.65803792l.97268146,2.14500034c-.56991234.24490427-1.13344497.50083406-1.6911538.76781585l-.97268146-2.14500034c-2.55066812,1.21758573-4.97945987,2.6487463-7.26435066,4.27026591l1.39691924,1.89486788c-.50547987.35807141-1.00344174.72603005-1.49383267,1.10383621l-1.39750162-1.89545026c-2.23263538,1.7143696-4.31379886,3.61563043-6.22027464,5.68170496l1.76021884,1.56348009c-.42016112.45442892-.83163947.91697146-1.23382621,1.38821001l-1.76024531-1.56289771c-1.82462484,2.13222767-3.46934702,4.42173781-4.91153311,6.84647936l2.0474913,1.16362288c-.31686798.53159435-.62330605,1.06959488-.91870537,1.61397513l-2.04751777-1.16362288c-1.33656344,2.45433708-2.47056432,5.0351831-3.37881331,7.72050026l2.24539481.712675c-.19848589.58500129-.38595949,1.1746484-.56122958,1.77009284l-2.24539481-.712675c-.78925805,2.66500002-1.35861448,5.42401479-1.68652122,8.25674041l2.34289061.22982856c-.07195047.61286291-.1317239,1.22919363-.17932028,1.8490054l-2.34289061-.22981532c-.09982533,1.27852392-.15091599,2.57098526-.15091599,3.87504127,0,1.5338978.07025628,3.05152866.20780398,4.55000713l2.34000518-.26230951c.05627914.61864701.12417942,1.23383944.20483913,1.84553759l-2.34000518.26232274c.36679388,2.82691505.9744286,5.57780297,1.80087959,8.23235984l2.23493843-.74343529c.18395285.59255901.37952684,1.18044573.58616606,1.76254836l-2.23554728.74342205c.94541546,2.6714062,2.11425329,5.23656766,3.48504482,7.67293035l2.03184644-1.19148449c.30294379.54031682.61689987,1.07424069.94075642,1.60120247l-2.03126406,1.19147126c1.4752759,2.40442441,3.15134075,4.67189674,5.00442282,6.77914822l1.73935902-1.58784742c.40798407.46544121.82584214.92219965,1.25238297,1.37080477l-1.73930608,1.58786066c1.93432416,2.03878206,4.04161535,3.91219451,6.29802245,5.59638621l1.370818-1.91460264c.49560588.37085731.9987827.73184062,1.50947753,1.08238078l-1.37076506,1.9145894c2.30575061,1.59017694,4.75484626,2.98767857,7.32293286,4.16987144l.94305947-2.15834215c.5606472.25939761,1.12823002.50721378,1.70105427.74460005l-.94308594,2.15775977c2.57446631,1.06960812,5.25977023,1.92562816,8.03388719,2.54778269l.4735813-2.30691537c.60241977.13519171,1.20888973.25939761,1.81940988.37142645l-.47355483,2.30691537c2.7230263.50316359,5.52499164.78115766,8.3861745.81482985l-.01625371-2.35510737c.2019537.00289867.40448979.00406343.60705234.00406343.41785807,0,.83455137-.00521495,1.25007992-.01624048l.01625371,2.35449851c2.85882686-.07197695,5.65732439-.38884493,8.37513574-.92913528l-.50550635-2.3005489c.60938186-.12072485,1.21410468-.25303113,1.8142214-.39755416l.50547987,2.30111804c2.76366058-.65985044,5.43678745-1.55302371,7.99732957-2.6586203l-.97268146-2.14500034c.56991234-.24489103,1.1334185-.5008473,1.69059789-.76781585l.97268146,2.14500034c2.55066812-1.21758573,4.98004225-2.64816392,7.2648801-4.26968353l-1.39689277-1.89545026c.50547987-.35808464,1.00341527-.72601681,1.49383267-1.10384945l1.39750162,1.89605911c2.23321776-1.71438284,4.31438124-3.61680843,6.22085702-5.68228734l-1.76082769-1.56348009c.42021406-.45442892.83166594-.9169847,1.23385268-1.38824971l1.76080122,1.5635198c1.82406893-2.13225414,3.46881758-4.42177751,4.91042129-6.8464926l-2.04751777-1.16360964c.31747683-.53162082.62388843-1.06960812.91928775-1.61397513l2.0474913,1.16360964c1.33656344-2.45433708,2.47003488-5.03516986,3.37828387-7.72048702v-.00059562l-2.24481243-.71209262c.19848589-.58500129.38590655-1.17463516.56120311-1.77009284l2.24481243.71209262c.78928452-2.66500002,1.35919686-5.42341917,1.6871036-8.25615803l-2.34291708-.22981532c.07139457-.61286291.13175037-1.22920687.17932028-1.84903188l2.34291708.22982856Zm-19.16177711-21.74440998l2.81774256-1.62684045c.22543423-.13016206.51371262-.05291722.64384821.17251701l.01164761.02015831c.13013559.22542099.05291722.51368615-.17251701.64383497l-2.81776903,1.62684045c-.22540776.13014882-.51368615.05290398-.64382173-.17251701l-.01164761-.02015831c-.13013559-.22543423-.05291722-.51368615.17251701-.64383497Zm-12.88710283-12.53353163l1.62685368-2.81776903c.13013559-.22543423.41841398-.30266584.64384821-.17251701l.02014507.01163438c.22543423.13016206.3026526.41841398.17251701.64383497l-1.62685368,2.81776903c-.13013559.22543423-.4183875.30266584-.64382173.17251701l-.02014507-.01163438c-.22543423-.13014882-.30267907-.41841398-.17254348-.64383497Zm-18.7883388-7.5644752c0-.98465997.798232-1.78287874,1.78287874-1.78287874h.05463789c.98467321,0,1.78290521.79821877,1.78290521,1.78287874v2.84510121c0,.98465997-.798232,1.78289197-1.78290521,1.78289197h-.05463789c-.98464673,0-1.78287874-.798232-1.78287874-1.78289197v-2.84510121Zm-17.39115483,4.58582354l.02014507-.01163438c.22543423-.13014882.51368615-.05291722.64382173.17251701l1.62685368,2.81776903c.13013559.22542099.05291722.51368615-.17251701.64383497l-.02014507.01163438c-.22543423.13014882-.51371262.05291722-.64384821-.17251701l-1.62685368-2.81776903c-.13013559-.22542099-.05289075-.51367291.17254348-.64383497Zm-14.06949424,14.07801817l.01162114-.02015831c.13016206-.22543423.41841398-.30267907.64384821-.17251701l2.81776903,1.62684045c.22543423.13014882.30267907.41840074.17251701.64383497l-.01162114.02015831c-.13018853.22542099-.41841398.30266584-.64384821.17251701l-2.81776903-1.62684045c-.22543423-.13014882-.30267907-.41841398-.17251701-.64383497Zm-.06821794,19.33056159c0,.98465997-.798232,1.78289197-1.78290521,1.78289197h-2.84511445c-.98464673,0-1.78287874-.798232-1.78287874-1.78289197v-.05465112c0-.98464673.798232-1.78287874,1.78287874-1.78287874h2.84511445c.98467321,0,1.78290521.798232,1.78290521,1.78287874v.05465112Zm3.54145632,17.66531049l-2.81776903,1.62684045c-.22543423.13014882-.51368615.05290398-.64384821-.17251701l-.01162114-.02015831c-.13016206-.22543423-.05291722-.51368615.17251701-.64383497l2.81776903-1.62684045c.22543423-.13016206.51365967-.05291722.64384821.17251701l.01162114.02015831c.13016206.22542099.05291722.51368615-.17251701.64383497Zm12.88707636,12.53353163l-1.62685368,2.8177558c-.13013559.22543423-.4183875.30267907-.64382173.17251701l-.02014507-.01163438c-.22543423-.13014882-.30267907-.41841398-.17254348-.64383497l1.62685368-2.81776903c.13013559-.22543423.41841398-.30266584.64384821-.17251701l.02014507.01163438c.22543423.13016206.30267907.41841398.17251701.64384821Zm18.72075618,7.74091005c0,.98465997-.798232,1.78289197-1.78290521,1.78289197h-.05463789c-.98464673,0-1.78287874-.798232-1.78287874-1.78289197v-2.84510121c0-.98465997.798232-1.78287874,1.78287874-1.78287874h.05463789c.98467321,0,1.78290521.79821877,1.78290521,1.78287874v2.84510121Zm17.45876393-4.76227162l-.02014507.01163438c-.22543423.13016206-.51371262.05291722-.64384821-.17251701l-1.62685368-2.8177558c-.13013559-.22543423-.05289075-.51368615.17254348-.64384821l.02014507-.01163438c.22543423-.13014882.51368615-.05291722.64382173.17251701l1.62685368,2.81776903c.13013559.22542099.05291722.51368615-.17251701.64383497Zm-19.23515706-1.91918227c-17.2790201,0-31.2859349-14.00692804-31.2859349-31.28592166,0-17.27839801,14.0069148-31.28532605,31.2859349-31.28532605,17.27838478,0,31.28532605,14.00692804,31.28532605,31.28532605,0,17.27899363-14.00694127,31.28592166-31.28532605,31.28592166Zm33.3046513-12.15882267l-.01164761.02015831c-.13013559.22542099-.41841398.30266584-.64384821.17251701l-2.81774256-1.62684045c-.22543423-.13014882-.3026526-.41841398-.17251701-.64383497l.01164761-.02015831c.13013559-.22543423.41841398-.30267907.64382173-.17251701l2.81776903,1.62684045c.22543423.13014882.3026526.41840074.17251701.64383497Zm6.41148077-19.09947562c0,.98465997-.798232,1.78289197-1.78287874,1.78289197h-2.84508798c-.98464673,0-1.78287874-.798232-1.78287874-1.78289197v-.05465112c0-.98464673.798232-1.78287874,1.78287874-1.78287874h2.84508798c.98464673,0,1.78287874.798232,1.78287874,1.78287874v.05465112Z"/>
    </g>
    <g>
      <g>
        <path class="cls-4" d="m116.21258897,426.3895052v-29.8930347h18.37250799c3.98833231,0,6.92563084.65367998,8.81221719,1.96055752,1.88626474,1.30703834,2.82955791,3.33481314,2.82955791,6.083646,0,1.75183018-.4415757,3.30152611-1.32376226,4.64876618-.88282979,1.34756168-2.09885144,2.3177096-3.64838656,2.91044377,1.32054612.55269326,2.24679377,1.23628332,2.77906455,2.05141341.53227078.8154517.84552259,2.25370846.94007704,4.3152527.01318616.20213425.02669394.47840048.04020172.82863787.16177172,3.70563381.68728862,6.07045983,1.57655068,7.09431726h-8.40794868c-.20229506-.32338264-.35377514-.68021311-.45476187-1.07129545-.10098672-.39059992-.15148008-.8083762-.15148008-1.25300723v-2.02118171c0-2.74883286-.35377514-4.54761865-1.06132543-5.39651819-.70722867-.84889954-2.09177593-1.27342971-4.15332017-1.27342971h-8.65076708v11.01543229h-7.49842495Zm7.49842495-17.13944081h8.46873368c2.23650213,0,3.80983667-.27288928,4.7193604-.81866784.90952373-.54561775,1.3642856-1.44501065,1.3642856-2.69817869,0-1.21280551-.42420856-2.06154424-1.2732689-2.54669861-.84873873-.48515437-2.56036719-.72765115-5.13359893-.72765115h-8.14551185v6.79119628Z"/>
        <path class="cls-4" d="m151.64349111,426.3895052v-29.8930347h26.5379599v6.04328347h-19.03921333v5.05287388h16.95740742v6.0838068h-16.95740742v6.42729031h19.03921333v6.28578025h-26.5379599Z"/>
        <path class="cls-4" d="m183.0526131,426.3895052v-29.8930347h7.49842495v23.60725445h15.38117836v6.28578025h-22.87960331Z"/>
        <path class="cls-4" d="m213.45090303,426.3895052v-12.75359389l-13.05687567-17.13944081h9.51976747l7.45822323,10.69188884,7.37717656-10.69188884h9.47924414l-13.29937245,17.13944081v12.75359389h-7.47816329Z"/>
        <path class="cls-4" d="m290.73114912,426.3895052v-29.8930347h18.37250799c3.98833231,0,6.92563084.65367998,8.81221719,1.96055752,1.88626474,1.30703834,2.82955791,3.33481314,2.82955791,6.083646,0,1.75183018-.44125409,3.30152611-1.32376226,4.64876618-.88282979,1.34756168-2.09885144,2.3177096-3.64806495,2.91044377,1.32022451.55269326,2.24647215,1.23628332,2.77906455,2.05141341.53194917.8154517.84520098,2.25370846.93975542,4.3152527.01318616.20213425.02669394.47840048.04052333.82863787.16145011,3.70563381.686967,6.07045983,1.57655068,7.09431726h-8.4082703c-.20197344-.32338264-.35377514-.68021311-.45476187-1.07129545-.10098672-.39059992-.15148008-.8083762-.15148008-1.25300723v-2.02118171c0-2.74883286-.35377514-4.54761865-1.06100381-5.39651819-.70755029-.84889954-2.09209755-1.27342971-4.15364179-1.27342971h-8.65044546v11.01543229h-7.49874657Zm7.49874657-17.13944081h8.46841207c2.23682374,0,3.81015828-.27288928,4.71968201-.81866784.90952373-.54561775,1.3642856-1.44501065,1.3642856-2.69817869,0-1.21280551-.42453017-2.06154424-1.27359051-2.54669861-.84873873-.48515437-2.56004558-.72765115-5.13359893-.72765115h-8.14519024v6.79119628Z"/>
        <path class="cls-4" d="m326.16237287,426.3895052v-29.8930347h26.5379599v6.04328347h-19.03921333v5.05287388h16.95740742v6.0838068h-16.95740742v6.42729031h19.03921333v6.28578025h-26.5379599Z"/>
        <path class="cls-4" d="m357.57117325,426.3895052v-29.8930347h7.49874657v23.60725445h15.38085674v6.28578025h-22.87960331Z"/>
        <path class="cls-4" d="m382.5123208,426.3895052l14.16837284-29.8930347h7.19546479l13.62259428,29.8930347h-8.32722363l-2.72857119-6.32630358h-13.15786239l-2.68804786,6.32630358h-8.08472685Zm13.33989578-12.36958705h7.90269346l-4.02210176-9.23674736-3.8805917,9.23674736Z"/>
        <path class="cls-4" d="m416.60949065,426.3895052l12.32938533-15.15878244-11.74308344-14.73425227h9.4387208l6.87192134,9.35799575,6.87224295-9.35799575h9.21648569l-11.78360677,14.6533664,12.20781533,15.2396683h-9.64069425l-6.97322967-9.60049253-7.39743823,9.60049253h-9.39851908Z"/>
      </g>
      <path class="cls-6" d="m261.0491801,436.36811617h-33.84538097c4.68205437-.79252555,9.84748775-1.81478185,12.1316213-4.41630567,1.37429811-1.56784056,1.40275939-3.42854052,1.40275939-5.20883121-.01897419-11.14127575.01891634-29.28443893-.03794838-40.4199311h7.07048811c0,1.95831976.00948709,11.89483008.00948709,12.73905731,0,3.2504764-.00948709,6.50673638-.01897419,9.75721279-.00948709,6.2597951-.01891634,12.51955514-.02840343,18.77935024,0,4.93314729,5.22229809,8.05158284,13.31635107,8.76944764Z"/>
      <path class="cls-9" d="m258.16137451,381.86869816h33.84538097c-4.68205437.79252555-9.84748775,1.81478185-12.1316213,4.41630567-1.37429811,1.56784056-1.40275939,3.42854052-1.40275939,5.20883121.01897419,11.14127575-.01891634,32.71466733.03794838,43.8501595l-7.07048811-3.4302284c0-1.95831976-.00948709-11.89483008-.00948709-12.73905731,0-3.2504764.00948709-6.50673638.01897419-9.75721279.00948709-6.2597951.01891634-12.51955514.02840343-18.77935024,0-4.93314729-5.22229809-8.05158284-13.31635107-8.76944764Z"/>
      <path class="cls-4" d="m217.3117032,403.81935411c-.26662536-2.16678185-.43650166-7.67258857,2.98587978-13.19741177,2.47507879-3.99557237,6.29412052-6.69050487,10.78769623-7.94062904,5.43613004-1.51234519,10.93682559-1.01621397,15.54969582,2.35678375,3.18376246,2.32801335,5.77188487,5.40352419,8.04924599,8.5969948,5.31796804,7.45721636,9.19640841,15.8393733,13.50351149,23.88994732,2.88993141,5.4016833,5.90878892,11.01082269,10.1626157,15.48308629,8.430509,8.86342121,29.05227359,7.71577869,25.66153825-14.96811382,1.77520815,7.38844833,1.17766186,18.21492846-8.86811682,22.49400726-3.70610897,1.5786464-7.91578015,1.97592179-11.83652038,1.0207722-4.33055838-1.05498728-7.73105253-3.83291135-10.63202809-7.11423954-4.72501678-5.34452318-8.19059473-11.74408113-11.51636385-18.01152494-3.40842162-6.42320323-6.57268511-13.01716205-10.51253003-19.14055991-1.6252506-2.52600198-3.39761821-5.00072976-5.53151849-7.12615006-2.50619814-2.49623867-5.10093821-3.98647293-8.71619532-4.21419758-10.75811943-.67765213-19.13567981,6.71368702-19.08691027,17.87123506Z"/>
      <path class="cls-4" d="m236.39861346,385.94811905s11.33047431-1.82381789,21.76276104,27.76473863c10.25254953,29.07877717,25.6323652,27.96871414,27.81747562,28.35566024s-4.28617814-3.39497579-4.28617814-3.39497579c0,0-14.11917504-14.20321775-14.20321775-14.45534587s-11.26172295-26.55749591-11.26172295-26.55749591l-14.45534587-13.44683337-5.37377195,1.73425208Z"/>
      <path class="cls-4" d="m237.99046353,381.86869816s14.62343129-1.60483849,22.99763292,18.22924073c8.32698914,19.72225768,14.68480667,33.21283684,22.40108279,36.44049764,7.71627611,3.2276608-9.42843643-1.56277358-9.51247914-1.81490171s-13.86704691-25.47347044-13.86704691-25.47347044l-15.46385838-23.18725782-6.55533127-4.1941084Z"/>
    </g>
  </g>
</svg>